<?xml version="1.0" encoding="iso-8859-1"?>
<!-- Uploaded to: SVG Repo, www.svgrepo.com, Generator: SVG Repo Mixer Tools -->
<svg version="1.1" id="Layer_1" xmlns="http://www.w3.org/2000/svg" xmlns:xlink="http://www.w3.org/1999/xlink" 
	 viewBox="0 0 512 512" xml:space="preserve">
<path style="fill:#FF754F;" d="M430.418,0h-33.758v512h33.758c18.567,0,33.758-15.191,33.758-33.758V33.758
	C464.176,15.191,448.985,0,430.418,0z"/>
<path style="fill:#FF9269;" d="M364.851,205.363l65.566-171.604C430.418,15.191,415.226,0,396.659,0h-53.451L256,23.74L168.791,0
	H81.582C63.015,0,47.824,15.191,47.824,33.758v444.484c0,18.567,15.191,33.758,33.758,33.758h315.077
	c18.567,0,33.758-15.191,33.758-33.758V376.967L364.851,205.363z"/>
<polygon style="fill:#FFEAB5;" points="430.418,33.758 430.418,478.242 396.659,478.242 329.143,222.242 396.659,33.758 "/>
<polygon style="fill:#A7CBCF;" points="343.209,0 334.769,56.264 244.747,56.264 301.011,0 "/>
<polygon style="fill:#C7E7EB;" points="301.011,0 301.011,56.264 177.231,56.264 168.791,0 "/>
<rect x="81.582" y="33.758" style="fill:#FFFFFF;" width="315.077" height="444.484"/>
<g>
	<path style="fill:#88ACB5;" d="M326.33,0v61.89c0,4.654-3.785,8.44-8.44,8.44H194.11c-4.654,0-8.44-3.785-8.44-8.44V0h-16.879
		v61.89c0,13.96,11.357,25.319,25.319,25.319h123.78c13.961,0,25.319-11.359,25.319-25.319V0H326.33z"/>
	<path style="fill:#88ACB5;" d="M354.462,362.901H157.538c-4.661,0-8.44,3.778-8.44,8.44s3.779,8.44,8.44,8.44h196.923
		c4.661,0,8.44-3.778,8.44-8.44S359.122,362.901,354.462,362.901z"/>
	<path style="fill:#88ACB5;" d="M354.462,413.538H157.538c-4.661,0-8.44-3.778-8.44-8.44s3.779-8.44,8.44-8.44h196.923
		c4.661,0,8.44,3.778,8.44,8.44S359.122,413.538,354.462,413.538z"/>
	<path style="fill:#88ACB5;" d="M264.44,447.297H157.538c-4.661,0-8.44-3.778-8.44-8.44c0-4.662,3.779-8.44,8.44-8.44H264.44
		c4.661,0,8.44,3.778,8.44,8.44C272.879,443.519,269.1,447.297,264.44,447.297z"/>
</g>
<path style="fill:#FFBE35;" d="M331.596,251.668L256,331.956c29.527,0,56.241-11.962,75.596-31.305V251.668z"/>
<path style="fill:#FF4719;" d="M316.371,191.297v94.129l15.225,15.225c19.343-19.355,31.305-46.069,31.305-75.596L316.371,191.297z"
	/>
<path style="fill:#FFCD60;" d="M316.371,180.044v105.382c-13.177,28.098-35.3,46.53-60.371,46.53
	c-59.043,0-106.901-47.858-106.901-106.901L316.371,180.044z"/>
<path style="fill:#FF754F;" d="M256,225.055l36.571-11.253l36.571,11.253c0,22.404-4.715,43.188-12.772,60.371L256,225.055z"/>
<path style="fill:#FF9269;" d="M331.596,149.459h-37.73l35.277,75.596h33.758C362.901,195.528,350.939,168.814,331.596,149.459z"/>
<path style="fill:#FFEAB5;" d="M256,118.154l18.848,56.545L256,225.055H149.099C149.099,166.012,196.957,118.154,256,118.154z"/>
<path style="fill:#FFB082;" d="M329.143,225.055H256l18.848-50.356l41.523-10.015C324.428,181.867,329.143,202.651,329.143,225.055z
	"/>
<path style="fill:#25BBCC;" d="M256,118.154l60.371,46.53l15.225-15.225C312.241,130.116,285.527,118.154,256,118.154z"/>
<path style="fill:#50D1DD;" d="M316.371,164.684L256,225.055V118.154C281.071,118.154,303.194,136.586,316.371,164.684z"/>
</svg>