<?xml version="1.0" encoding="iso-8859-1"?>
<!-- Uploaded to: SVG Repo, www.svgrepo.com, Generator: SVG Repo Mixer Tools -->
<svg height="800px" width="800px" version="1.1" id="Layer_1" xmlns="http://www.w3.org/2000/svg" xmlns:xlink="http://www.w3.org/1999/xlink" 
	 viewBox="0 0 511.999 511.999" xml:space="preserve">
<path style="fill:#CFF09E;" d="M301.206,51.809c-5.444-5.419-11.287-10.323-17.503-14.634
	C262.994,22.76,238.156,14.73,209.919,14.73c-28.224,0-53.077,8.031-73.784,22.445c-6.886,4.787-13.32,10.283-19.267,16.435
	c-31.507,32.562-49.345,83.219-49.345,142.936c0,70.147,56.525,114.699,56.525,114.699l35.192-29.918
	c-24.045-16.275-39.851-43.803-39.851-75.024v-62.657h181.058v62.659c0,31.22-15.804,58.747-39.847,75.022l35.201,29.921
	c0,0,56.514-42.407,56.514-114.699C352.314,135.736,333.806,84.294,301.206,51.809z"/>
<g>
	<path style="fill:#507C5C;" d="M440.176,342.511c-4.808-6.562-14.024-7.984-20.588-3.177c-6.562,4.808-7.985,14.024-3.177,20.588
		c9.719,13.267,14.856,29.004,14.856,45.51c0,42.517-34.591,77.109-77.109,77.109s-77.109-34.591-77.109-77.109
		c0-38.957,29.11-71.863,67.713-76.543c8.075-0.98,13.828-8.319,12.85-16.396c-0.98-8.075-8.315-13.834-16.396-12.85
		c-5.319,0.645-10.501,1.692-15.531,3.081c18.132-20.846,41.36-57.12,41.36-106.178c0-64.441-19.689-119.548-55.447-155.179
		c-6.098-6.069-12.659-11.553-19.48-16.284C268.203,8.44,240.548,0,209.919,0s-58.286,8.44-82.195,25.082
		c-7.626,5.303-14.842,11.457-21.444,18.287c-34.493,35.647-53.488,90.047-53.488,153.179c0,45.764,21.376,81.277,39.069,102.839
		c-25.207,23.571-40.591,58.322-40.591,97.716v85.673c0,8.135,6.595,14.73,14.73,14.73h158.941c8.135,0,14.73-6.595,14.73-14.73
		s-6.595-14.73-14.73-14.73H80.732v-70.943c0-31.485,11.776-58.611,31.37-76.655c1.545,1.345,2.545,2.145,2.83,2.367
		c5.507,4.342,13.314,4.198,18.658-0.345l27.194-23.118c14.678,7.783,31.396,12.212,49.135,12.212
		c17.742,0,34.462-4.431,49.141-12.215l27.201,23.121c0.171,0.146,0.352,0.272,0.527,0.408
		c-24.033,19.66-39.197,49.524-39.197,82.553c0,58.763,47.807,106.568,106.568,106.568c58.763,0,106.568-47.807,106.568-106.568
		C460.726,382.621,453.619,360.864,440.176,342.511z M161.769,264.802c-0.022-0.018-0.044-0.035-0.066-0.055
		c-4.637-3.833-8.81-8.206-12.426-13.021c-0.057-0.077-0.115-0.155-0.172-0.231c-0.694-0.931-1.368-1.875-2.019-2.837
		c-0.004-0.007-0.01-0.015-0.015-0.024c-1.352-2-2.61-4.07-3.771-6.198c-0.006-0.012-0.013-0.024-0.019-0.035
		c-0.38-0.7-0.732-1.416-1.091-2.128c-0.283-0.563-0.567-1.124-0.835-1.694c-0.289-0.61-0.563-1.227-0.835-1.844
		c-0.321-0.732-0.632-1.47-0.929-2.214c-0.208-0.516-0.417-1.031-0.614-1.554c-0.387-1.031-0.75-2.071-1.093-3.12
		c-0.087-0.265-0.184-0.526-0.268-0.792c-0.433-1.376-0.826-2.765-1.181-4.167c-0.055-0.217-0.099-0.437-0.152-0.655
		c-0.284-1.171-0.544-2.349-0.773-3.537c-0.077-0.398-0.144-0.8-0.215-1.199c-0.181-1.027-0.342-2.058-0.48-3.093
		c-0.06-0.448-0.119-0.896-0.171-1.346c-0.121-1.04-0.214-2.084-0.292-3.133c-0.031-0.418-0.072-0.834-0.096-1.253
		c-0.084-1.449-0.136-2.905-0.136-4.367v-47.929h151.599v47.929c0,1.463-0.052,2.918-0.135,4.367
		c-0.024,0.42-0.065,0.834-0.096,1.251c-0.078,1.049-0.171,2.095-0.292,3.134c-0.052,0.451-0.112,0.899-0.171,1.346
		c-0.138,1.037-0.299,2.068-0.48,3.093c-0.071,0.399-0.138,0.801-0.215,1.199c-0.23,1.189-0.489,2.369-0.773,3.541
		c-0.053,0.217-0.096,0.436-0.15,0.651c-0.355,1.404-0.748,2.794-1.183,4.171c-0.082,0.261-0.177,0.514-0.262,0.773
		c-0.345,1.055-0.71,2.102-1.1,3.139c-0.194,0.517-0.402,1.028-0.608,1.541c-0.3,0.748-0.613,1.492-0.937,2.23
		c-0.27,0.614-0.544,1.226-0.829,1.831c-0.271,0.574-0.558,1.142-0.843,1.71c-0.356,0.708-0.707,1.42-1.086,2.117
		c-0.015,0.027-0.031,0.053-0.046,0.08c-1.152,2.114-2.401,4.167-3.743,6.153c-0.006,0.009-0.012,0.019-0.019,0.028
		c-0.65,0.962-1.324,1.905-2.017,2.834c-0.057,0.078-0.116,0.156-0.175,0.234c-3.616,4.815-7.789,9.188-12.426,13.02
		c-0.021,0.018-0.043,0.035-0.065,0.053c-13.102,10.804-29.882,17.302-48.152,17.302
		C191.649,282.104,174.871,275.607,161.769,264.802z M283.564,281.513c11.89-11.639,20.763-25.882,26.042-41.497
		c0.286-0.841,0.586-1.673,0.851-2.523c0.025-0.082,0.046-0.166,0.071-0.249c2.513-8.156,4.065-16.727,4.512-25.587
		c0.09-1.776,0.136-3.562,0.136-5.353v-62.659c0-8.135-6.595-14.73-14.73-14.73H119.39c-8.135,0-14.73,6.595-14.73,14.73v62.659
		c0,1.791,0.046,3.576,0.136,5.353c0.446,8.863,1.999,17.437,4.513,25.594c0.025,0.081,0.044,0.163,0.069,0.245
		c0.258,0.828,0.552,1.639,0.829,2.46c5.278,15.642,14.161,29.907,26.067,41.563l-11.843,10.066
		c-14.553-14.784-42.182-48.928-42.182-95.038c0-55.446,16.052-102.571,45.206-132.7c5.279-5.462,11.027-10.367,17.091-14.582
		c18.882-13.142,40.877-19.806,65.372-19.806s46.49,6.664,65.39,19.819c5.419,3.759,10.636,8.123,15.502,12.965
		c30.164,30.056,46.774,77.754,46.774,134.304c0,47.229-27.562,80.797-42.028,95.16L283.564,281.513z"/>
	<path style="fill:#507C5C;" d="M339.19,450.456c-4.409,0-8.769-1.969-11.67-5.728c-4.971-6.44-3.781-15.689,2.657-20.661
		l23.7-18.299l-23.7-18.3c-6.44-4.971-7.629-14.222-2.657-20.66c4.97-6.44,14.22-7.63,20.66-2.657l38.801,29.959
		c3.613,2.79,5.728,7.095,5.728,11.659c0,4.565-2.115,8.87-5.728,11.66l-38.801,29.957
		C345.502,449.455,342.333,450.456,339.19,450.456z"/>
</g>
</svg>